<?xml version="1.0" encoding="UTF-8" standalone="no"?>
<!DOCTYPE svg PUBLIC "-//W3C//DTD SVG 1.1//EN"
 "http://www.w3.org/Graphics/SVG/1.1/DTD/svg11.dtd">
<!-- Generated by graphviz version 2.38.0 (20140413.2041)
 -->
<!-- Title: Flow Pages: 1 -->
<svg width="446pt" height="647pt"
 viewBox="0.00 0.00 446.00 647.00" xmlns="http://www.w3.org/2000/svg" xmlns:xlink="http://www.w3.org/1999/xlink">
<g id="graph0" class="graph" transform="scale(1 1) rotate(0) translate(4 643)">
<title>Flow</title>
<g id="clust1" class="cluster"><title>cluster_interpreter</title>
<polygon fill="#f9e7bf" stroke="#f9e7bf" points="12,-97 12,-631 236,-631 236,-97 12,-97"/>
<text text-anchor="middle" x="124" y="-615.8" font-family="Helvetica,sans-Serif" font-size="14.00">Nash Interpreter</text>
</g>
<g id="clust5" class="cluster"><title>cluster_compiler</title>
<polygon fill="#f9c7c3" stroke="#f9c7c3" points="10,-8 10,-62 202,-62 202,-8 10,-8"/>
</g>
<g id="clust9" class="cluster"><title>cluster_native</title>
<polygon fill="#bfe7dc" stroke="#bfe7dc" points="244,-9 244,-245 430,-245 430,-9 244,-9"/>
<text text-anchor="middle" x="337" y="-229.8" font-family="Helvetica,sans-Serif" font-size="14.00">Native code</text>
</g>
<!-- start -->
<g id="node1" class="node"><title>start</title>
<path fill="#ffffff" stroke="black" stroke-width="2" d="M148,-600C148,-600 100,-600 100,-600 94,-600 88,-594 88,-588 88,-588 88,-576 88,-576 88,-570 94,-564 100,-564 100,-564 148,-564 148,-564 154,-564 160,-570 160,-576 160,-576 160,-588 160,-588 160,-594 154,-600 148,-600"/>
<text text-anchor="middle" x="124" y="-578.3" font-family="Helvetica,sans-Serif" font-size="14.00">Start</text>
</g>
<!-- interpret -->
<g id="node2" class="node"><title>interpret</title>
<polygon fill="#bfdcec" stroke="black" stroke-width="2" points="190.5,-527 57.5,-527 57.5,-491 190.5,-491 190.5,-527"/>
<text text-anchor="middle" x="124" y="-505.3" font-family="Helvetica,sans-Serif" font-size="14.00">Interpret bytecode</text>
</g>
<!-- start&#45;&gt;interpret -->
<g id="edge2" class="edge"><title>start&#45;&gt;interpret</title>
<path fill="none" stroke="black" stroke-width="2" d="M124,-563.955C124,-563.955 124,-537.09 124,-537.09"/>
<polygon fill="black" stroke="black" stroke-width="2" points="127.5,-537.09 124,-527.09 120.5,-537.09 127.5,-537.09"/>
</g>
<!-- is_hotloop -->
<g id="node5" class="node"><title>is_hotloop</title>
<polygon fill="#fbf8d0" stroke="black" stroke-width="2" points="212.615,-436 168.308,-454 79.6923,-454 35.3846,-436 79.6923,-418 168.308,-418 212.615,-436"/>
<text text-anchor="middle" x="124" y="-432.3" font-family="Helvetica,sans-Serif" font-size="14.00">Hot loop found?</text>
</g>
<!-- interpret&#45;&gt;is_hotloop -->
<g id="edge3" class="edge"><title>interpret&#45;&gt;is_hotloop</title>
<path fill="none" stroke="black" stroke-width="2" d="M101.833,-490.955C101.833,-490.955 101.833,-464.09 101.833,-464.09"/>
<polygon fill="black" stroke="black" stroke-width="2" points="105.333,-464.09 101.833,-454.09 98.3334,-464.09 105.333,-464.09"/>
</g>
<!-- lookup -->
<g id="node3" class="node"><title>lookup</title>
<polygon fill="#bfdcec" stroke="black" stroke-width="2" points="193.5,-381 54.5,-381 54.5,-345 193.5,-345 193.5,-381"/>
<text text-anchor="middle" x="124" y="-359.3" font-family="Helvetica,sans-Serif" font-size="14.00">Lookup native code</text>
</g>
<!-- has_native -->
<g id="node6" class="node"><title>has_native</title>
<polygon fill="#fbf8d0" stroke="black" stroke-width="2" points="227.635,-290 175.817,-308 72.1825,-308 20.3651,-290 72.1825,-272 175.817,-272 227.635,-290"/>
<text text-anchor="middle" x="124" y="-286.3" font-family="Helvetica,sans-Serif" font-size="14.00">Native code found?</text>
</g>
<!-- lookup&#45;&gt;has_native -->
<g id="edge6" class="edge"><title>lookup&#45;&gt;has_native</title>
<path fill="none" stroke="black" stroke-width="2" d="M124,-344.955C124,-344.955 124,-318.09 124,-318.09"/>
<polygon fill="black" stroke="black" stroke-width="2" points="127.5,-318.09 124,-308.09 120.5,-318.09 127.5,-318.09"/>
</g>
<!-- rec -->
<g id="node4" class="node"><title>rec</title>
<polygon fill="#bfdcec" stroke="black" stroke-width="2" points="171.5,-214 28.5,-214 28.5,-178 171.5,-178 171.5,-214"/>
<text text-anchor="middle" x="100" y="-192.3" font-family="Helvetica,sans-Serif" font-size="14.00">Record and interpret</text>
</g>
<!-- done_rec -->
<g id="node7" class="node"><title>done_rec</title>
<polygon fill="#fbf8d0" stroke="black" stroke-width="2" points="172.094,-123 136.047,-141 63.9531,-141 27.9061,-123 63.9531,-105 136.047,-105 172.094,-123"/>
<text text-anchor="middle" x="100" y="-119.3" font-family="Helvetica,sans-Serif" font-size="14.00">End of loop?</text>
</g>
<!-- rec&#45;&gt;done_rec -->
<g id="edge9" class="edge"><title>rec&#45;&gt;done_rec</title>
<path fill="none" stroke="black" stroke-width="2" d="M76.1667,-177.955C76.1667,-177.955 76.1667,-151.09 76.1667,-151.09"/>
<polygon fill="black" stroke="black" stroke-width="2" points="79.6668,-151.09 76.1667,-141.09 72.6668,-151.09 79.6668,-151.09"/>
</g>
<!-- is_hotloop&#45;&gt;interpret -->
<g id="edge5" class="edge"><title>is_hotloop&#45;&gt;interpret</title>
<path fill="none" stroke="black" stroke-width="2" d="M146.167,-454.045C146.167,-454.045 146.167,-480.91 146.167,-480.91"/>
<polygon fill="black" stroke="black" stroke-width="2" points="142.667,-480.91 146.167,-490.91 149.667,-480.91 142.667,-480.91"/>
<text text-anchor="middle" x="161.488" y="-463.201" font-family="Helvetica,sans-Serif" font-size="14.00">No</text>
</g>
<!-- is_hotloop&#45;&gt;lookup -->
<g id="edge4" class="edge"><title>is_hotloop&#45;&gt;lookup</title>
<path fill="none" stroke="black" stroke-width="2" d="M124,-417.955C124,-417.955 124,-391.09 124,-391.09"/>
<polygon fill="black" stroke="black" stroke-width="2" points="127.5,-391.09 124,-381.09 120.5,-391.09 127.5,-391.09"/>
<text text-anchor="middle" x="104.849" y="-398.185" font-family="Helvetica,sans-Serif" font-size="14.00">Yes</text>
</g>
<!-- has_native&#45;&gt;rec -->
<g id="edge8" class="edge"><title>has_native&#45;&gt;rec</title>
<path fill="none" stroke="black" stroke-width="2" d="M100,-271.876C100,-271.876 100,-224.069 100,-224.069"/>
<polygon fill="black" stroke="black" stroke-width="2" points="103.5,-224.068 100,-214.069 96.5001,-224.069 103.5,-224.068"/>
<text text-anchor="middle" x="80.8489" y="-252.106" font-family="Helvetica,sans-Serif" font-size="14.00">No</text>
</g>
<!-- native -->
<g id="node10" class="node"><title>native</title>
<polygon fill="#bfdcec" stroke="black" stroke-width="2" points="394,-214 258,-214 258,-178 394,-178 394,-214"/>
<text text-anchor="middle" x="326" y="-192.3" font-family="Helvetica,sans-Serif" font-size="14.00">Run compiled code</text>
</g>
<!-- has_native&#45;&gt;native -->
<g id="edge7" class="edge"><title>has_native&#45;&gt;native</title>
<path fill="none" stroke="black" stroke-width="2" d="M210.784,-284.12C210.784,-263.541 210.784,-196 210.784,-196 210.784,-196 247.979,-196 247.979,-196"/>
<polygon fill="black" stroke="black" stroke-width="2" points="247.979,-199.5 257.979,-196 247.979,-192.5 247.979,-199.5"/>
<text text-anchor="middle" x="229.935" y="-264.35" font-family="Helvetica,sans-Serif" font-size="14.00">Yes</text>
</g>
<!-- done_rec&#45;&gt;rec -->
<g id="edge15" class="edge"><title>done_rec&#45;&gt;rec</title>
<path fill="none" stroke="black" stroke-width="2" d="M123.833,-141.045C123.833,-141.045 123.833,-167.91 123.833,-167.91"/>
<polygon fill="black" stroke="black" stroke-width="2" points="120.333,-167.91 123.833,-177.91 127.333,-167.91 120.333,-167.91"/>
<text text-anchor="middle" x="142.984" y="-153.415" font-family="Helvetica,sans-Serif" font-size="14.00">No</text>
</g>
<!-- compile -->
<g id="node8" class="node"><title>compile</title>
<polygon fill="#bfdcec" stroke="black" stroke-width="2" points="86,-53 18,-53 18,-17 86,-17 86,-53"/>
<text text-anchor="middle" x="52" y="-31.3" font-family="Helvetica,sans-Serif" font-size="14.00">Compile</text>
</g>
<!-- done_rec&#45;&gt;compile -->
<g id="edge14" class="edge"><title>done_rec&#45;&gt;compile</title>
<path fill="none" stroke="black" stroke-width="2" d="M56.9765,-108.469C56.9765,-108.469 56.9765,-63.217 56.9765,-63.217"/>
<polygon fill="black" stroke="black" stroke-width="2" points="60.4766,-63.2169 56.9765,-53.217 53.4766,-63.217 60.4766,-63.2169"/>
<text text-anchor="middle" x="87.5" y="-75.8" font-family="Helvetica,sans-Serif" font-size="14.00">Yes</text>
</g>
<!-- compile&#45;&gt;interpret -->
<g id="edge16" class="edge"><title>compile&#45;&gt;interpret</title>
<path fill="none" stroke="black" stroke-width="2" d="M17.8955,-35C8.09406,-35 0,-35 0,-35 0,-35 0,-509 0,-509 0,-509 47.2814,-509 47.2814,-509"/>
<polygon fill="black" stroke="black" stroke-width="2" points="47.2814,-512.5 57.2814,-509 47.2814,-505.5 47.2814,-512.5"/>
</g>
<!-- l -->
<g id="node9" class="node"><title>l</title>
<text text-anchor="middle" x="158" y="-38.8" font-family="Helvetica,sans-Serif" font-size="14.00">Nash</text>
<text text-anchor="middle" x="158" y="-23.8" font-family="Helvetica,sans-Serif" font-size="14.00">Compiler</text>
</g>
<!-- compile&#45;&gt;l -->
<!-- guard -->
<g id="node12" class="node"><title>guard</title>
<polygon fill="#fbf8d0" stroke="black" stroke-width="2" points="399.596,-123 362.798,-141 289.202,-141 252.404,-123 289.202,-105 362.798,-105 399.596,-123"/>
<text text-anchor="middle" x="326" y="-119.3" font-family="Helvetica,sans-Serif" font-size="14.00">Guard failed?</text>
</g>
<!-- native&#45;&gt;guard -->
<g id="edge10" class="edge"><title>native&#45;&gt;guard</title>
<path fill="none" stroke="black" stroke-width="2" d="M303.333,-177.955C303.333,-177.955 303.333,-151.09 303.333,-151.09"/>
<polygon fill="black" stroke="black" stroke-width="2" points="306.833,-151.09 303.333,-141.09 299.833,-151.09 306.833,-151.09"/>
</g>
<!-- recover -->
<g id="node11" class="node"><title>recover</title>
<polygon fill="#bfdcec" stroke="black" stroke-width="2" points="422,-53 252,-53 252,-17 422,-17 422,-53"/>
<text text-anchor="middle" x="337" y="-31.3" font-family="Helvetica,sans-Serif" font-size="14.00">Recover interpreter state</text>
</g>
<!-- recover&#45;&gt;interpret -->
<g id="edge13" class="edge"><title>recover&#45;&gt;interpret</title>
<path fill="none" stroke="black" stroke-width="2" d="M410.774,-53.0026C410.774,-139.584 410.774,-509 410.774,-509 410.774,-509 200.513,-509 200.513,-509"/>
<polygon fill="black" stroke="black" stroke-width="2" points="200.513,-505.5 190.513,-509 200.512,-512.5 200.513,-505.5"/>
</g>
<!-- guard&#45;&gt;native -->
<g id="edge12" class="edge"><title>guard&#45;&gt;native</title>
<path fill="none" stroke="black" stroke-width="2" d="M348.667,-141.045C348.667,-141.045 348.667,-167.91 348.667,-167.91"/>
<polygon fill="black" stroke="black" stroke-width="2" points="345.167,-167.91 348.667,-177.91 352.167,-167.91 345.167,-167.91"/>
<text text-anchor="middle" x="367.818" y="-153.415" font-family="Helvetica,sans-Serif" font-size="14.00">No</text>
</g>
<!-- guard&#45;&gt;recover -->
<g id="edge11" class="edge"><title>guard&#45;&gt;recover</title>
<path fill="none" stroke="black" stroke-width="2" d="M326,-104.766C326,-104.766 326,-63.2103 326,-63.2103"/>
<polygon fill="black" stroke="black" stroke-width="2" points="329.5,-63.2103 326,-53.2103 322.5,-63.2103 329.5,-63.2103"/>
<text text-anchor="middle" x="343.5" y="-75.8" font-family="Helvetica,sans-Serif" font-size="14.00">Yes</text>
</g>
</g>
</svg>
